<svg width="120" height="120" viewBox="0 0 120 120" fill="none" xmlns="http://www.w3.org/2000/svg">
<path fill-rule="evenodd" clip-rule="evenodd" d="M60 119C92.5848 119 119 92.5848 119 60C119 27.4152 92.5848 1 60 1C27.4152 1 1 27.4152 1 60C1 92.5848 27.4152 119 60 119ZM60 120C93.1371 120 120 93.1371 120 60C120 26.8629 93.1371 0 60 0C26.8629 0 0 26.8629 0 60C0 93.1371 26.8629 120 60 120Z" fill="white"/>
<path fill-rule="evenodd" clip-rule="evenodd" d="M59.4997 78.7803V41H60.4997V78.7803L73.6436 65.4429L74.3558 66.1448L59.9997 80.7123L45.6436 66.1448L46.3558 65.4429L59.4997 78.7803Z" fill="white"/>
</svg>
