<svg xmlns="http://www.w3.org/2000/svg" width="143" height="28.451" viewBox="0 0 143 28.451"><g transform="translate(0 0)"><path d="M286.68-122.317H272.459V-108.1h.012v14.23H286.68v-.009A14.221,14.221,0,0,0,300.9-108.1,14.221,14.221,0,0,0,286.68-122.317Z" transform="translate(-196.088 122.317)"/><path d="M140.027-122.308H125.806v14.221h14.221v14.221a14.221,14.221,0,0,0,14.221-14.221A14.221,14.221,0,0,0,140.027-122.308Z" transform="translate(-125.806 122.313)"/><path d="M227.573-122.308H199.134v14.221h0a14.221,14.221,0,0,0,14.221,14.221h0a14.221,14.221,0,0,0,14.221-14.221h0Z" transform="translate(-160.946 122.313)"/><path d="M360.005-122.308a14.221,14.221,0,0,0-14.221,14.221h0v14.221h28.439v-14.221h0a14.221,14.221,0,0,0-14.221-14.221" transform="translate(-231.228 122.313)"/></g></svg>